<svg viewBox="0 0 340 315" xmlns="http://www.w3.org/2000/svg">
  <g transform="scale(4)">
    <path d="m 13.6308,0.7255 0.02,-0.0339 64.1293,14.1717 h 6.6615 V 77.6914 H 11.9881 c -2.513,0 -4.5502,-2.0372 -4.5502,-4.5502 v -6.1561 z" fill="#0c3d91"/>
    <path d="M 78.2288,63.6907 H 13.6308 V 0.7255 l 0.0199,-0.0379 h 60.0279 c 2.513,0 4.5502,2.0372 4.5502,4.5502 z" fill="#186bff"/>
    <path d="M 0,8.913 V 71.9161 L 13.6507,63.6907 V 0.6876 Z" fill="#679ae7"/>
  </g>
  <path d="m 240.73401,181.26304 v 21.79554 a 30.700989,30.700989 0 0 1 -14.53107,3.11334 c -12.66376,0 -22.62664,-3.73508 -30.51497,-20.13344 l -17.43712,-35.29249 h -15.98389 v 52.31135 H 125.93823 V 57.747876 h 55.01101 c 31.55329,0 52.72753,15.154882 52.72753,39.442024 v 13.07824 c 0,14.32173 -8.92665,25.53437 -23.04322,32.58953 l 16.19114,30.51706 a 12.354139,12.354139 0 0 0 12.24926,7.88831 z m -78.46705,-54.38929 h 15.77665 c 11.62335,0 19.30443,-6.01891 19.30443,-17.22902 V 99.266541 c 0,-11.001655 -7.88832,-16.604833 -19.30443,-16.604833 h -15.77665 z" fill="#ffffff"/>
</svg>
